{
    "asset" : {
        "generator" : "Khronos glTF Blender I/O v1.6.16",
        "version" : "2.0"
    },
    "scene" : 0,
    "scenes" : [
        {
            "name" : "Scene",
            "nodes" : [
                0
            ]
        }
    ],
    "nodes" : [
        {
            "mesh" : 0,
            "name" : "Mesh_0.001"
        }
    ],
    "materials" : [
        {
            "name" : "Material_0.001",
            "pbrMetallicRoughness" : {}
        }
    ],
    "meshes" : [
        {
            "name" : "Mesh_0.001",
            "primitives" : [
                {
                    "attributes" : {
                        "POSITION" : 0,
                        "NORMAL" : 1,
                        "TANGENT" : 2,
                        "TEXCOORD_0" : 3
                    },
                    "indices" : 4,
                    "material" : 0
                }
            ]
        }
    ],
    "accessors" : [
        {
            "bufferView" : 0,
            "componentType" : 5126,
            "count" : 930,
            "max" : [
                10.7734375,
                16.21875,
                5.5703125
            ],
            "min" : [
                -10.8125,
                -0.912109375,
                -5.34765625
            ],
            "type" : "VEC3"
        },
        {
            "bufferView" : 1,
            "componentType" : 5126,
            "count" : 930,
            "type" : "VEC3"
        },
        {
            "bufferView" : 2,
            "componentType" : 5126,
            "count" : 930,
            "type" : "VEC4"
        },
        {
            "bufferView" : 3,
            "componentType" : 5126,
            "count" : 930,
            "type" : "VEC2"
        },
        {
            "bufferView" : 4,
            "componentType" : 5123,
            "count" : 4140,
            "type" : "SCALAR"
        }
    ],
    "bufferViews" : [
        {
            "buffer" : 0,
            "byteLength" : 11160,
            "byteOffset" : 0
        },
        {
            "buffer" : 0,
            "byteLength" : 11160,
            "byteOffset" : 11160
        },
        {
            "buffer" : 0,
            "byteLength" : 14880,
            "byteOffset" : 22320
        },
        {
            "buffer" : 0,
            "byteLength" : 7440,
            "byteOffset" : 37200
        },
        {
            "buffer" : 0,
            "byteLength" : 8280,
            "byteOffset" : 44640
        }
    ],
    "buffers" : [
        {
            "byteLength" : 52920,
            "uri" : "data:application/octet-stream;base64,"
        }
    ]
}
